name rise49.8558peak67.6521fall70.3087.mot
datacolumns 19
datarows 23
range 22.23325200000000 22.26991300000000
endheader
time	ground_force1_vx	ground_force1_vy	ground_force1_vz	ground_force1_px	ground_force1_py	ground_force1_pz	ground_force2_vx	ground_force2_vy	ground_force2_vz	ground_force2_px	ground_force2_py	ground_force2_pz	ground_torque1_x	ground_torque1_y	ground_torque1_z	ground_torque2_x	ground_torque2_y	ground_torque2_z	
22.23325200000000	-11.22102900000000	46.05676400000000	-11.22973700000000	0.34307900000000	0.00000000000000	0.09745800000000	-60.72264200000000	785.66907600000002	-53.19589200000000	0.14173000000000	0.00000000000000	-0.09446700000000	0.00000000000000	-7.65525900000000	0.00000000000000	0.00000000000000	-23.61070600000000	0.00000000000000	
22.23491800000000	-11.99327900000000	52.80848100000000	-12.29192200000000	0.34863300000000	0.00000000000000	0.09830700000000	-61.41630000000000	782.90905699999996	-52.79301500000000	0.14084200000000	0.00000000000000	-0.09437600000000	0.00000000000000	-8.48671600000000	0.00000000000000	0.00000000000000	-23.54359200000000	0.00000000000000	
22.23658600000000	-12.54248900000000	59.53879700000000	-13.19873500000000	0.35378400000000	0.00000000000000	0.09908300000000	-62.12282700000000	780.06942200000003	-52.38152600000000	0.13995800000000	0.00000000000000	-0.09428300000000	0.00000000000000	-9.22963900000000	0.00000000000000	0.00000000000000	-23.47961600000000	0.00000000000000	
22.23824800000000	-12.85384200000000	66.18324600000000	-13.93331500000000	0.35857900000000	0.00000000000000	0.09979700000000	-62.84186400000000	777.14874099999997	-51.96125800000000	0.13908000000000	0.00000000000000	-0.09418700000000	0.00000000000000	-9.87004500000000	0.00000000000000	0.00000000000000	-23.41872600000000	0.00000000000000	
22.23991200000000	-12.92393000000000	72.70164800000001	-14.48829100000000	0.36305800000000	0.00000000000000	0.10045600000000	-63.57297200000000	774.14545299999997	-51.53203500000000	0.13820600000000	0.00000000000000	-0.09408900000000	0.00000000000000	-10.40029100000000	0.00000000000000	0.00000000000000	-23.36085600000000	0.00000000000000	
22.24158700000000	-12.75961400000000	79.07770300000000	-14.86503800000000	0.36725400000000	0.00000000000000	0.10106800000000	-64.31562800000000	771.05787599999996	-51.09367600000000	0.13733800000000	0.00000000000000	-0.09398900000000	0.00000000000000	-10.81876600000000	0.00000000000000	0.00000000000000	-23.30591700000000	0.00000000000000	
22.24324700000000	-12.37622000000000	85.31666000000000	-15.07234900000000	0.37119600000000	0.00000000000000	0.10163900000000	-65.06922500000000	767.88420499999995	-50.64598900000000	0.13647500000000	0.00000000000000	-0.09388700000000	0.00000000000000	-11.12913000000000	0.00000000000000	0.00000000000000	-23.25380100000000	0.00000000000000	
22.24491100000000	-11.79535800000000	91.44161800000001	-15.12472300000000	0.37490700000000	0.00000000000000	0.10217400000000	-65.83306700000000	764.62251400000002	-50.18878300000000	0.13561800000000	0.00000000000000	-0.09378200000000	0.00000000000000	-11.33925800000000	0.00000000000000	0.00000000000000	-23.20438500000000	0.00000000000000	
22.24658500000000	-11.04258500000000	97.48898100000000	-15.04048700000000	0.37840800000000	0.00000000000000	0.10267600000000	-66.60637300000000	761.27076599999998	-49.72186300000000	0.13476700000000	0.00000000000000	-0.09367500000000	0.00000000000000	-11.46000700000000	0.00000000000000	0.00000000000000	-23.15752100000000	0.00000000000000	
22.24825100000000	-10.14515700000000	103.50361300000000	-14.83992400000000	0.38171800000000	0.00000000000000	0.10315000000000	-67.38827100000000	757.82681400000001	-49.24503300000000	0.13392300000000	0.00000000000000	-0.09356600000000	0.00000000000000	-11.50395200000000	0.00000000000000	0.00000000000000	-23.11304800000000	0.00000000000000	
22.24991600000000	-9.13001100000000	109.53410900000000	-14.54356700000000	0.38485300000000	0.00000000000000	0.10359700000000	-68.17779899999999	754.28840800000000	-48.75810300000000	0.13308500000000	0.00000000000000	-0.09345500000000	0.00000000000000	-11.48420200000000	0.00000000000000	0.00000000000000	-23.07078300000000	0.00000000000000	
22.25157900000000	-8.02211700000000	115.62856700000000	-14.17076800000000	0.38782500000000	0.00000000000000	0.10402200000000	-68.97390600000000	750.65320399999996	-48.26088500000000	0.13225300000000	0.00000000000000	-0.09334200000000	0.00000000000000	-11.41336700000000	0.00000000000000	0.00000000000000	-23.03052600000000	0.00000000000000	
22.25324500000000	-6.84326000000000	121.83109399999999	-13.73859400000000	0.39064700000000	0.00000000000000	0.10442500000000	-69.77545000000001	746.91876600000001	-47.75319800000000	0.13142900000000	0.00000000000000	-0.09322600000000	0.00000000000000	-11.30274800000000	0.00000000000000	0.00000000000000	-22.99205800000000	0.00000000000000	
22.25491800000000	-5.61126800000000	128.17918000000000	-13.26109900000000	0.39333000000000	0.00000000000000	0.10480900000000	-70.58120099999999	743.08258100000000	-47.23487100000000	0.13061300000000	0.00000000000000	-0.09310800000000	0.00000000000000	-11.16175800000000	0.00000000000000	0.00000000000000	-22.95514500000000	0.00000000000000	
22.25658000000000	-4.33966700000000	134.70200600000001	-12.74894000000000	0.39588400000000	0.00000000000000	0.10517500000000	-71.38983700000000	739.14206300000001	-46.70574200000000	0.12980400000000	0.00000000000000	-0.09298700000000	0.00000000000000	-10.99760100000000	0.00000000000000	0.00000000000000	-22.91953300000000	0.00000000000000	
22.25824600000000	-3.03772000000000	141.41962300000000	-12.20932000000000	0.39831600000000	0.00000000000000	0.10552500000000	-72.19995100000000	735.09456399999999	-46.16566400000000	0.12900300000000	0.00000000000000	-0.09286500000000	0.00000000000000	-10.81516600000000	0.00000000000000	0.00000000000000	-22.88495300000000	0.00000000000000	
22.25991600000000	-1.71076300000000	148.34292800000000	-11.64620100000000	0.40063500000000	0.00000000000000	0.10586000000000	-73.01004800000000	730.93738599999995	-45.61450500000000	0.12821000000000	0.00000000000000	-0.09274000000000	0.00000000000000	-10.61712100000000	0.00000000000000	0.00000000000000	-22.85112000000000	0.00000000000000	
22.26158600000000	-0.36078300000000	155.47427900000000	-11.06070900000000	0.40284800000000	0.00000000000000	0.10618100000000	-73.81854700000000	726.66778899999997	-45.05214800000000	0.12742600000000	0.00000000000000	-0.09261300000000	0.00000000000000	-10.40415800000000	0.00000000000000	0.00000000000000	-22.81773400000000	0.00000000000000	
22.26325300000000	1.01288500000000	162.80858599999999	-10.45168900000000	0.40496100000000	0.00000000000000	0.10648800000000	-74.62378900000000	722.28300500000000	-44.47849900000000	0.12665000000000	0.00000000000000	-0.09248400000000	0.00000000000000	-10.17534500000000	0.00000000000000	0.00000000000000	-22.78447900000000	0.00000000000000	
22.26491200000000	2.41277600000000	170.33471499999999	-9.81631600000000	0.40697900000000	0.00000000000000	0.10678400000000	-75.42403299999999	717.78025200000002	-43.89348100000000	0.12588400000000	0.00000000000000	-0.09235200000000	0.00000000000000	-9.92853900000000	0.00000000000000	0.00000000000000	-22.75102500000000	0.00000000000000	
22.26658200000000	3.84253600000000	178.03704200000001	-9.15072500000000	0.40890700000000	0.00000000000000	0.10706800000000	-76.21746300000000	713.15674300000001	-43.29704400000000	0.12512700000000	0.00000000000000	-0.09221800000000	0.00000000000000	-9.66081000000000	0.00000000000000	0.00000000000000	-22.71703100000000	0.00000000000000	
22.26824600000000	5.30621600000000	185.89700700000000	-8.45060000000000	0.41075000000000	0.00000000000000	0.10734100000000	-77.00219000000000	708.40970500000003	-42.68915900000000	0.12438000000000	0.00000000000000	-0.09208200000000	0.00000000000000	-9.36886300000000	0.00000000000000	0.00000000000000	-22.68214100000000	0.00000000000000	
22.26991300000000	6.80767300000000	193.89456100000001	-7.71168800000000	0.41251300000000	0.00000000000000	0.10760300000000	-77.77625800000000	703.53639099999998	-42.06982500000000	0.12364400000000	0.00000000000000	-0.09194300000000	0.00000000000000	-9.04939500000000	0.00000000000000	0.00000000000000	-22.64599000000000	0.00000000000000	
